<svg width="961" height="535" viewBox="0 0 961 535" fill="none" xmlns="http://www.w3.org/2000/svg">
<path d="M960.37 119.013C955.673 113.623 951.018 108.194 946.272 102.848C919.244 72.4194 889.819 44.5854 856.729 20.783C847.969 14.4819 838.83 8.70568 829.865 2.68957C829.01 2.1847 828.271 1.50688 827.693 0.699536C829.319 0.503334 830.942 0.138956 832.567 0.137274C863.705 0.103266 894.843 0.0949539 925.981 0.112332H930.42L929.164 1.11295C929.634 1.48602 930.038 1.81816 930.454 2.13573C940.042 9.46695 949.632 16.7952 959.224 24.1204C959.591 24.362 959.974 24.5766 960.371 24.7626L960.37 119.013Z" fill="#F8F1FF"/>
<path d="M0.0917969 534.149V513.802C0.798123 513.989 1.32758 514.03 1.75614 514.258C13.523 520.54 25.2814 526.838 37.0313 533.152C37.4828 533.394 37.8402 533.813 38.2413 534.149H0.0917969Z" fill="#F8F1FF"/>
<path d="M954.756 194.996C936.703 164.084 915.986 135.115 891.748 108.718C861.275 75.5316 826.559 47.7228 786.811 26.3691C768.798 16.7189 750.007 8.59755 730.635 2.0905C729.948 1.8587 729.262 1.62494 728.583 1.36763C728.427 1.30849 728.31 1.14817 728.009 0.89535L730.371 0.520047C730.366 0.441006 730.362 0.361964 730.358 0.283203H559.189L559.159 0.522853L561.355 0.920575C560.23 1.40099 559.561 1.71912 558.869 1.97755C536.138 10.4736 515.165 22.0414 496.648 37.8236C469.705 60.7879 451.475 89.1769 443.484 123.848C438.168 146.911 439.545 169.457 449.104 191.283C454.804 204.295 463.105 215.418 473.847 224.721C473.947 224.808 474.046 224.895 474.146 224.984C474.595 224.324 475.153 223.745 475.795 223.271C467.723 210.423 462.887 195.809 461.701 180.682C459.439 152.641 467.186 127.216 483.072 104.369C501.828 77.395 526.714 57.7011 556.979 44.8681C574.242 37.5475 592.268 33.1717 610.903 31.2604C644.859 27.7781 677.938 32.1971 710.346 42.4212C745.575 53.5354 777.307 71.1145 806.13 94.1422C847.123 126.892 879.291 166.821 903.596 213.197C920.998 246.404 933.653 281.401 942.905 317.675C949.077 342.048 953.769 366.771 956.957 391.711C958.158 400.975 958.919 410.297 959.9 419.59C960.01 420.197 960.166 420.793 960.369 421.376V204.545C958.498 201.363 956.619 198.185 954.756 194.996Z" fill="#F8F1FF"/>
<path d="M437.244 321.01C418.459 336.262 396.824 345.484 373.126 349.97C358.56 352.769 343.649 353.31 328.919 351.572C316.084 350.041 303.527 347.117 291.205 343.269C240.212 327.343 199.09 297.414 166.834 255.106C144.419 225.708 128.955 192.9 119.465 157.212C113.709 135.725 109.735 113.8 107.584 91.6593C105.317 68.0583 105.057 44.3074 106.806 20.6623C107.256 14.5988 107.875 8.54798 108.402 2.49011C108.456 1.86703 108.409 1.23499 108.409 0.621998C106.498 -0.00276479 58.3466 -0.26175 53.2296 0.343112C53.166 1.06794 53.0513 1.84657 53.0362 2.62689C52.6208 23.9675 52.8366 45.2893 54.4489 66.5906C56.4992 93.7004 60.3366 120.531 66.5895 146.997C75.6398 185.302 89.2842 221.806 109.532 255.689C135.282 298.778 169.408 333.545 212.785 359.01C234.08 371.511 256.414 381.725 280.312 388.244C302.687 394.348 325.461 396.581 348.582 394.611C377.642 392.135 404.564 383.375 428.572 366.533C445.67 354.54 459.916 339.788 470.322 321.591C478.327 307.593 482.646 292.399 484.117 276.366C485.371 262.692 484.412 249.185 481.517 235.815C481.034 235.923 480.541 235.979 480.046 235.984C479.184 270.88 464.344 299.005 437.244 321.01Z" fill="#F8F1FF"/>
<path d="M473.206 225.751C456.931 216.025 444.286 202.765 434.979 186.302C426.923 172.054 422.079 156.747 420.149 140.51C417.064 114.57 421.138 89.8077 432.935 66.4891C442.165 48.2174 454.108 31.4485 468.359 16.7528C472.965 11.9961 477.922 7.57929 482.723 3.01227C483.369 2.39704 484.045 1.8118 485.098 0.858821C483.619 0.555549 482.54 0.143809 481.46 0.141566C462.932 0.102887 444.403 0.0961537 425.875 0.12138C425.34 0.12138 424.806 0.209951 424.276 0.256759C424.344 1.84683 423.171 2.69527 422.413 3.72253C412.114 17.6845 403.742 32.6945 397.649 48.9554C389.626 70.1743 386.222 92.8607 387.665 115.5C389.357 142.706 397.743 167.594 414.134 189.544C425.495 204.759 439.663 216.522 457.397 223.736C462.433 225.751 467.638 227.317 472.95 228.417C473.012 227.578 473.223 226.758 473.576 225.994C473.452 225.908 473.329 225.825 473.206 225.751Z" fill="#F8F1FF"/>
<path d="M465.12 229.356C443.776 227.498 424.888 219.402 408.193 206.176C386.412 188.92 372.064 166.722 364.782 139.925C359.303 119.764 357.213 99.2683 358.815 78.4376C360.818 52.3988 368.048 27.8251 379.865 4.56875C380.358 3.59755 380.857 2.62971 381.341 1.65374C381.43 1.37511 381.497 1.08969 381.54 0.800272C380.982 0.586412 380.388 0.200452 379.767 0.152242C378.412 0.0471343 377.044 0.111039 375.682 0.111039C362.512 0.111039 349.342 0.111039 336.172 0.111039H333.175C331.086 5.94888 328.933 11.6073 327.029 17.3488C318.591 42.7989 314.933 68.9125 316.854 95.6826C318.39 117.107 322.725 137.946 331.987 157.476C345.324 185.597 365.234 207.757 392.613 222.892C405.552 230.045 419.409 234.512 434.15 235.975C447.43 237.301 460.841 235.899 473.559 231.855C473.216 231.102 473.01 230.293 472.949 229.467C470.339 229.574 467.725 229.537 465.12 229.356V229.356Z" fill="#F8F1FF"/>
<path d="M480.484 210.562C484.107 183.976 496.667 162.407 517.062 145.125C529.762 134.363 543.456 125.286 558.842 118.837C572.505 113.091 586.969 109.471 601.728 108.103C629.778 105.486 656.737 110.216 682.838 120.38C712.878 132.076 739.145 149.625 762.11 172.146C785.027 194.62 802.872 220.799 817.614 249.159C833.908 280.506 844.493 313.761 850.131 348.599C853.064 366.982 854.627 385.557 854.806 404.171C855.215 438.089 851.485 471.575 844.503 504.722C842.577 513.862 840.279 522.925 838.159 532.025C837.995 532.727 837.882 533.442 837.745 534.151H899.33C900.278 526.221 901.374 518.307 902.141 510.36C903.29 498.435 904.411 486.5 905.179 474.546C906.179 458.962 906.583 443.348 906.29 427.725C905.942 409.108 904.856 390.542 902.723 372.034C899.138 340.927 892.812 310.413 883.049 280.647C873.084 250.265 860.412 221.101 843.094 194.118C820.127 158.336 791.296 128.261 755.485 105.108C731.005 89.2811 704.616 77.9373 676.025 71.9254C655.177 67.5414 634.143 66.2002 612.906 68.1852C598.307 69.5502 583.863 71.887 569.969 76.5863C534.064 88.7298 506.02 110.749 487.16 143.881C479.853 156.604 475.331 170.734 473.895 185.336C472.619 197.792 473.833 210.377 477.467 222.359C478.178 222.089 478.929 221.936 479.69 221.906C479.68 218.111 479.946 214.319 480.484 210.562V210.562Z" fill="#F8F1FF"/>
<path d="M487.702 226.183C500.188 219.468 513.509 215.436 527.629 214.372C561.775 211.798 591.771 222.406 617.966 243.921C645.918 266.879 663.59 296.456 672.59 331.331C678.244 353.244 679.886 375.536 678.311 398.058C675.259 441.687 661.287 481.953 640.316 520.015C637.996 524.226 635.401 528.286 632.959 532.432C632.688 532.985 632.463 533.56 632.285 534.15H686.24C688.092 530.414 689.954 526.683 691.795 522.941C705.013 496.073 714.547 467.971 719.833 438.483C723.871 415.956 725.23 393.275 723.438 370.417C720.639 334.722 710.356 301.394 692.333 270.431C669.777 231.682 628.656 202.941 584.602 195.472C562.573 191.737 540.989 193.261 520.122 201.748C507.028 207.074 495.577 214.814 485.586 224.685C486.09 225.348 486.472 226.095 486.715 226.891C487.022 226.626 487.352 226.389 487.702 226.183V226.183Z" fill="#F8F1FF"/>
<path d="M482.915 235.343C488.844 247.569 492.643 260.443 493.833 274.019C497.079 311.003 485.205 342.995 461.295 370.863C448.646 385.606 433.048 396.657 416.138 405.934C392.478 418.915 367.147 426.384 340.24 428.515C310.205 430.894 281.015 426.587 252.451 417.399C224.491 408.404 198.746 394.934 174.445 378.585C124.96 345.293 87.0211 301.677 58.8595 249.329C41.532 217.121 28.7192 183.146 19.1704 147.897C12.7988 124.328 7.86425 100.393 4.39387 76.226C3.18863 67.8734 2.195 59.4908 1.08646 51.1239C0.94347 49.7616 0.591901 48.4293 0.0440694 47.1738V50.6298C0.0429483 116.186 0.0324843 181.743 0.0126773 247.3C-0.0103893 249.104 0.455696 250.881 1.36143 252.442C20.3554 286.05 41.9875 317.818 67.3186 347.006C92.993 376.592 121.728 402.719 154.787 423.913C185.245 443.44 217.948 457.723 253.296 465.742C279.636 471.713 306.665 474.073 333.64 472.758C348.916 472.035 364.05 470.378 378.902 466.623C414.068 457.733 445.098 441.313 470.86 415.566C490.858 395.578 504.746 371.985 511.95 344.527C520.814 310.746 515.02 279.412 496.362 250.236C493.241 245.356 489.493 240.876 486.031 236.213C485.57 235.592 485.095 234.983 484.904 234.02C485.7 234.524 486.521 234.995 487.288 235.541C505.747 248.691 519.167 265.857 527.838 286.732C535.794 305.883 538.695 325.788 536.543 346.448C532.547 385.207 516.047 417.973 488.899 445.568C465.826 469.023 438.274 485.515 407.595 496.975C387.925 504.313 367.412 509.154 346.537 511.385C329.863 513.19 313.182 513.144 296.48 512.017C233.607 507.772 176.414 486.791 123.486 453.294C93.0468 434.03 65.3571 411.324 39.6763 386.122C26.7055 373.392 14.3251 360.113 2.53527 346.283C1.95648 345.606 1.33004 344.97 0.242806 343.795C0.152554 345.309 0.0508018 346.234 0.0496807 347.162C0.037348 356.06 0.0346409 364.958 0.0415546 373.857C0.0415546 393.561 0.0695806 413.263 6.91153e-05 432.966C-0.00749867 435.069 0.605487 436.427 2.29366 437.756C37.0567 465.118 73.6738 489.622 113.081 509.846C129.547 518.327 146.452 525.927 163.725 532.612C164.806 533.03 165.817 533.633 166.86 534.15H443.716C444.652 533.607 445.56 533.009 446.526 532.528C484.618 513.564 515.754 486.679 538.676 450.738C551.99 429.863 561.937 407.427 567.086 383.062C571.507 362.141 571.863 341.172 566.249 320.47C558.668 292.521 544.591 268.463 521.737 250.099C511.303 241.685 499.215 235.56 486.259 232.124C485.539 233.543 484.36 234.677 482.915 235.343V235.343Z" fill="#F8F1FF"/>
<path d="M515.986 191.422C531.297 182.18 547.957 176.762 565.653 174.599C603.503 169.972 637.857 179.771 669.331 200.498C693.259 216.254 711.896 237.123 726.67 261.544C740.056 283.671 748.84 307.575 754.327 332.778C759.133 354.853 761.778 377.163 761.835 399.755C761.919 433.155 756.612 465.721 746.419 497.51C742.761 508.918 738.528 520.133 733.736 531.113C733.302 532.106 732.951 533.135 732.561 534.148H791.422C797.607 516.7 802.695 498.882 806.656 480.799C812.349 454.92 815.601 428.747 815.662 402.234C815.796 343.39 800.878 288.993 767.226 240.248C747.479 211.645 723.249 187.375 695.025 167.163C675.982 153.523 654.948 144.048 631.891 139.491C591.872 131.583 554.997 139.186 521.66 162.77C508.773 171.888 498.178 183.316 490.303 197.109C485.853 204.905 482.649 213.16 480.985 221.971C481.937 222.108 482.851 222.439 483.669 222.944C491.722 209.79 502.683 199.451 515.986 191.422Z" fill="#F8F1FF"/>
<path d="M486.964 229.804C492.131 230.156 497.261 230.921 502.305 232.092C523.649 237.041 541.893 247.638 557.644 262.668C578.057 282.148 590.58 305.975 596.311 333.482C603.426 367.627 599.64 400.83 587.454 433.249C577.52 459.68 562.47 482.947 543.449 503.735C534.344 513.749 524.632 523.194 514.368 532.016C513.635 532.642 513.043 533.434 512.386 534.15H584.326C585.817 532.216 587.282 530.26 588.803 528.348C609.218 502.699 624.593 474.408 633.59 442.794C640.015 420.319 642.757 396.951 641.707 373.599C640.802 353.036 637.232 333.034 629.629 313.844C618.874 286.702 602.366 263.907 578.425 246.857C563.042 235.902 546.121 228.505 527.359 225.571C514.096 223.497 500.939 223.91 487.883 227.088C487.532 227.19 487.166 227.228 486.802 227.198C487.019 228.048 487.075 228.933 486.965 229.804L486.964 229.804Z" fill="#F8F1FF"/>
<path d="M474.433 233.291C474.051 233.532 473.667 233.77 473.282 234.007C453.163 246.264 431.335 249.663 408.289 246.267C391.244 243.772 374.914 237.719 360.36 228.503C330.774 209.877 309.005 184.371 294.903 152.443C280.223 119.203 276.582 84.3408 280.478 48.4886C282.178 32.8359 285.514 17.514 290.101 2.45827C290.243 1.88341 290.351 1.3006 290.424 0.712923C288.453 -0.000971201 249.02 -0.244823 244.909 0.379379C244.773 0.964901 244.634 1.57256 244.491 2.17939C240.58 18.8195 237.756 35.6323 236.723 52.7086C235.57 71.2091 236.42 89.78 239.258 108.098C242.854 131.131 249.486 153.206 260.079 174.013C277.64 208.503 303.176 235.107 338.2 252.114C365.106 265.179 393.318 269.345 422.757 263.35C443.125 259.202 460.831 249.931 475.319 234.84C475.428 234.726 475.542 234.615 475.657 234.507C475.201 234.153 474.79 233.745 474.433 233.291V233.291Z" fill="#F8F1FF"/>
<path d="M476.009 235.686C469.902 246.279 462.076 255.436 452.383 262.857C424.54 284.171 392.911 291.205 358.602 286.406C339.494 283.733 321.484 277.113 304.389 268.154C284.901 257.942 267.55 244.872 252.849 228.487C240.159 214.344 230.002 198.458 221.785 181.333C207.04 150.601 199.767 118.024 197.978 84.1367C196.57 57.4452 198.741 30.9902 203.801 4.75912C204.07 3.36665 204.254 1.95792 204.515 0.31543H151.907C150.954 7.97767 149.936 15.5312 149.098 23.1048C148.559 27.9748 148.194 32.8687 147.906 37.7608C146.605 59.2517 147.263 80.8164 149.871 102.188C153.109 128.891 159.923 155.037 170.128 179.924C183.248 211.857 201.306 240.576 226.01 264.897C247.902 286.451 273.279 302.394 302.466 312.207C330.615 321.671 359.212 324.088 388.368 317.839C407.883 313.656 425.971 306.186 441.898 293.969C460.056 280.041 472.237 262.168 477.225 239.675C477.518 238.358 477.714 237.017 477.88 235.67C477.346 235.504 476.833 235.274 476.354 234.986C476.256 235.227 476.141 235.462 476.009 235.686V235.686Z" fill="#F8F1FF"/>
</svg>
